<?xml version="1.0" encoding="UTF-8" standalone="no"?>
<svg
   xmlns:dc="http://purl.org/dc/elements/1.1/"
   xmlns:cc="http://creativecommons.org/ns#"
   xmlns:rdf="http://www.w3.org/1999/02/22-rdf-syntax-ns#"
   xmlns:svg="http://www.w3.org/2000/svg"
   xmlns="http://www.w3.org/2000/svg"
   xmlns:sodipodi="http://sodipodi.sourceforge.net/DTD/sodipodi-0.dtd"
   xmlns:inkscape="http://www.inkscape.org/namespaces/inkscape"
   width="210mm"
   height="297mm"
   viewBox="0 0 210 297"
   version="1.1"
   id="svg8"
   inkscape:version="1.0.1 (3bc2e813f5, 2020-09-07)"
   sodipodi:docname="logo.svg">
  <defs
     id="defs2" />
  <sodipodi:namedview
     id="base"
     pagecolor="#ffffff"
     bordercolor="#666666"
     borderopacity="1.0"
     inkscape:pageopacity="0.0"
     inkscape:pageshadow="2"
     inkscape:zoom="1"
     inkscape:cx="596.7114"
     inkscape:cy="805.69217"
     inkscape:document-units="px"
     inkscape:current-layer="layer1"
     inkscape:document-rotation="0"
     showgrid="false"
     showborder="false"
     inkscape:snap-global="false"
     inkscape:window-width="1920"
     inkscape:window-height="1000"
     inkscape:window-x="-11"
     inkscape:window-y="-11"
     inkscape:window-maximized="1" />
  <metadata
     id="metadata5">
    <rdf:RDF>
      <cc:Work
         rdf:about="">
        <dc:format>image/svg+xml</dc:format>
        <dc:type
           rdf:resource="http://purl.org/dc/dcmitype/StillImage" />
        <dc:title></dc:title>
      </cc:Work>
    </rdf:RDF>
  </metadata>
  <g
     inkscape:label="Layer 1"
     inkscape:groupmode="layer"
     id="layer1">
    <g
       aria-label="G"
       id="text839"
       style="font-style:normal;font-variant:normal;font-weight:normal;font-stretch:normal;font-size:93.3343px;line-height:1.25;font-family:Candara;-inkscape-font-specification:'Candara, Normal';font-variant-ligatures:normal;font-variant-caps:normal;font-variant-numeric:normal;font-variant-east-asian:normal;fill:#000000;fill-opacity:1;stroke:none;stroke-width:6.47443">
      <path
         d="M -56.739395,130.95378 Q -56.739395,117.09947 -47.487997,108.3038 -38.191026,99.508137 -24.063274,99.508137 -19.232494,99.508137 -14.584014,100.92092 L -15.404334,105.11367 Q -23.106234,103.24516 -26.797684,103.24516 -38.555613,103.24516 -45.710635,110.76477 -52.820083,118.2388 -52.820083,129.541 -52.820083,143.62318 -45.528341,150.68705 -38.236599,157.75093 -24.382294,157.75093 -21.693464,157.75093 -19.779374,157.52306 -17.865294,157.2952 -15.130894,156.70274 -15.495484,153.0113 -15.495484,144.76251 -15.495484,142.3927 -15.723344,138.74683 L -15.860064,134.96424 H -11.211584 Q -11.393874,136.87832 -11.621744,144.17006 -11.804034,151.41623 -11.804034,156.06471 -11.804034,158.25224 -11.758464,158.89026 -16.452524,160.94107 -24.929174,160.94107 -40.013962,160.94107 -48.399465,153.05687 -56.739395,145.1271 -56.739395,130.95378 Z"
         style="font-style:normal;font-variant:normal;font-weight:normal;font-stretch:normal;font-size:93.3343px;font-family:Candara;-inkscape-font-specification:'Candara, Normal';font-variant-ligatures:normal;font-variant-caps:normal;font-variant-numeric:normal;font-variant-east-asian:normal;stroke-width:6.47443"
         id="path857" />
    </g>
    <text
       xml:space="preserve"
       style="font-style:normal;font-variant:normal;font-weight:normal;font-stretch:normal;font-size:86.3987px;line-height:1.25;font-family:Gabriola;-inkscape-font-specification:'Gabriola, Normal';font-variant-ligatures:normal;font-variant-caps:normal;font-variant-numeric:normal;font-variant-east-asian:normal;fill:#000000;fill-opacity:1;stroke:none;stroke-width:0.449993"
       x="9.4534931"
       y="137.38728"
       id="text843"><tspan
         sodipodi:role="line"
         id="tspan841"
         x="9.4534931"
         y="137.38728"
         style="font-style:normal;font-variant:normal;font-weight:normal;font-stretch:normal;font-size:86.3987px;font-family:Gabriola;-inkscape-font-specification:'Gabriola, Normal';font-variant-ligatures:normal;font-variant-caps:normal;font-variant-numeric:normal;font-variant-east-asian:normal;stroke-width:0.449993">G</tspan></text>
    <text
       xml:space="preserve"
       style="font-style:normal;font-variant:normal;font-weight:normal;font-stretch:normal;font-size:50.8px;line-height:1.25;font-family:Mistral;-inkscape-font-specification:'Mistral, Normal';font-variant-ligatures:normal;font-variant-caps:normal;font-variant-numeric:normal;font-variant-east-asian:normal;fill:#000000;fill-opacity:1;stroke:none;stroke-width:0.264583"
       x="158.75"
       y="118.26875"
       id="text851"><tspan
         sodipodi:role="line"
         id="tspan849"
         x="158.75"
         y="118.26875"
         style="font-style:normal;font-variant:normal;font-weight:normal;font-stretch:normal;font-size:50.8px;font-family:Mistral;-inkscape-font-specification:'Mistral, Normal';font-variant-ligatures:normal;font-variant-caps:normal;font-variant-numeric:normal;font-variant-east-asian:normal;stroke-width:0.264583">G</tspan></text>
    <g
       id="g968"
       inkscape:export-xdpi="96"
       inkscape:export-ydpi="96">
      <rect
         style="opacity:0.996;fill:#000000;stroke:none;stroke-width:2.28694;stroke-linecap:round;stroke-linejoin:miter;stroke-miterlimit:4;stroke-dasharray:none;stop-color:#000000"
         id="rect863"
         width="132.29167"
         height="132.29167"
         x="76.332191"
         y="141.43903"
         ry="0" />
      <g
         id="g962"
         transform="matrix(0.89560023,-0.23887106,0.23887106,0.89560023,-34.711343,55.705686)">
        <path
           d="M 182.70394,229.80619 C 182.88243,232.84041 183.19479,234.98224 183.64098,236.23161 184.08719,237.57025 184.57805,238.50729 185.11349,239.04273 185.64893,239.66746 185.91665,240.2029 185.91665,240.64911 185.91665,241.27382 185.5597,241.76461 184.84577,242.1216 184.22106,242.47858 183.50713,242.65704 182.70394,242.65704 180.7406,242.65704 179.08963,242.07698 177.75099,240.91683 176.50162,239.84592 175.87692,238.23956 175.87692,236.09774 175.87692,224.85324 175.96618,242.03234 176.14464,234.89298 L 176.41236,222.97913 C 176.68011,214.67963 176.81396,208.47731 176.81396,204.37214 167.88972,224.27315 159.144,239.26586 150.57675,249.35021 142.00951,259.52382 132.41597,264.61062 121.79614,264.61062 113.94283,264.61062 108.18671,262.2011 104.52778,257.38203 100.86885,252.56293 99.039382,245.06659 99.039382,234.89298 99.039382,221.23893 102.11824,207.89719 108.27595,194.86785 114.43366,181.74925 122.3316,171.08481 131.96975,162.87453 141.69717,154.66425 151.51379,150.55911 161.41968,150.55911 164.54316,150.55911 166.64034,151.54077 167.71126,153.5041 168.8714,155.46743 169.45149,157.52 169.45149,159.66181 169.45149,161.89287 169.22836,163.67771 168.78217,165.01634 168.42519,166.26573 167.97898,166.89043 167.44354,166.89043 166.99733,166.89043 166.64034,166.48884 166.37262,165.68566 166.19416,164.88248 165.97103,163.4546 165.70331,161.40203 165.43558,159.4387 164.98937,158.01083 164.36467,157.11841 163.73997,156.13674 162.62444,155.64591 161.01808,155.64591 152.80781,155.64591 144.32979,159.66181 135.58407,167.69361 126.92757,175.7254 119.69895,185.89901 113.89821,198.21444 108.18671,210.44062 105.33096,222.39908 105.33096,234.08981 105.33096,241.49689 106.53573,247.253 108.94527,251.35817 111.44405,255.55253 115.90616,257.64975 122.3316,257.64975 129.29249,257.64975 135.76254,254.92786 141.74178,249.48409 147.72102,244.04029 153.03091,237.34714 157.67152,229.40459 162.40133,221.37278 167.97898,210.75298 174.40443,197.54512 169.85306,198.43755 180.97367,196.03191 172.7634,198.70918 L 167.54273,200.44942 162.58979,202.05577 C 159.28785,203.21592 156.61057,204.10831 154.55801,204.73301 152.50544,205.26848 150.80982,205.53621 149.47119,205.53621 148.57876,205.53621 147.8648,205.13461 147.32936,204.33145 146.88315,203.43899 146.66004,202.50195 146.66004,201.5203 146.66004,200.27092 148.4895,199.02152 152.14846,197.77214 155.80738,196.43348 161.29577,194.961 168.61365,193.35464 156.87873,206.24717 158.39966,196.03813 171.45944,192.19059 176.01079,191.03044 179.17889,190.45037 180.96374,190.45037 H 182.43622 C 183.32864,190.45037 183.95331,190.80734 184.3103,191.52127 184.66728,192.14597 184.84577,193.17225 184.84577,194.60013 184.84577,195.40331 184.3103,196.11726 183.23941,196.74193 L 183.10554,207.04941 C 182.83781,214.01031 182.70394,221.59591 182.70394,229.80619 V 222.44369 Z"
           style="font-style:normal;font-variant:normal;font-weight:normal;font-stretch:normal;font-size:50.8px;line-height:1.25;font-family:'Ink Free';-inkscape-font-specification:'Ink Free, Normal';font-variant-ligatures:normal;font-variant-caps:normal;font-variant-numeric:normal;font-variant-east-asian:normal;fill:#00aa44;fill-opacity:1;stroke:none;stroke-width:0.697204"
           id="path860"
           sodipodi:nodetypes="cccscscsccccsssccscscscccsccscssccccccscscccsscsccscc" />
        <path
           id="path942"
           style="fill:#ffcc00;stroke:none;stroke-width:0.762071px;stroke-linecap:butt;stroke-linejoin:miter;stroke-opacity:1"
           d="M 124.38793,170.24628 C 120.67299,174.3418 117.27515,178.88497 114.1982,183.88022 121.27405,180.06552 123.61899,173.67064 124.38793,170.24628 Z M 114.2235,197.53947 C 111.24369,199.34206 106.72724,203.55884 108.61363,212.08135 109.96096,207.49799 111.72005,202.8749 113.89753,198.21372 114.00458,197.98644 114.11547,197.76528 114.2235,197.53947 Z M 99.47175,226.17075 C 99.189753,229.06409 99.040105,231.97095 99.040105,234.8929 99.040105,238.7913 99.309581,242.29345 99.846827,245.40563 103.48856,238.96114 101.18692,230.61155 99.47175,226.17075 Z" />
      </g>
    </g>
  </g>
</svg>
